<?xml version="1.0" standalone="no"?>
<!DOCTYPE svg PUBLIC "-//W3C//DTD SVG 20010904//EN"
 "http://www.w3.org/TR/2001/REC-SVG-20010904/DTD/svg10.dtd">
<svg version="1.0" xmlns="http://www.w3.org/2000/svg"
 width="1366.000000pt" height="411.000000pt" viewBox="0 0 1366.000000 411.000000"
 preserveAspectRatio="xMidYMid meet">

<g transform="translate(0.000000,411.000000) scale(0.100000,-0.100000)"
fill="#000000" stroke="none">
<path d="M6834 4088 c21 -30 20 -45 -4 -53 -13 -4 -24 -21 -31 -52 -7 -24 -18
-47 -25 -50 -8 -3 -14 -14 -14 -24 0 -34 -41 -101 -94 -154 -62 -62 -142 -102
-233 -115 -43 -6 -1187 -10 -3181 -10 -3035 0 -3114 0 -3150 -19 -42 -22 -63
-43 -86 -88 -15 -29 -16 -188 -16 -1778 l0 -1745 6830 0 6830 0 0 1403 c0 771
-3 1696 -7 2055 l-6 652 -3414 0 -3414 0 15 -22z"/>
</g>
</svg>
