<?xml version="1.0" encoding="utf-8"?>
<!-- Generator: Adobe Illustrator 19.0.1, SVG Export Plug-In . SVG Version: 6.00 Build 0)  -->
<svg version="1.1" xmlns="http://www.w3.org/2000/svg" xmlns:xlink="http://www.w3.org/1999/xlink" x="0px" y="0px"
	 viewBox="0 0 65.9 65.9" style="enable-background:new 0 0 65.9 65.9;" xml:space="preserve">
<style type="text/css">
	.st0{display:none;}
	.st1{fill:#029393;}
</style>
<g id="Layer_1" class="st0">
	
		<image style="display:inline;overflow:visible;" width="20" height="20" xlink:href="Крестик_закрыть.png"  transform="matrix(3.2904 0 0 3.2904 0 7.729329e-002)">
	</image>
</g>
<g id="Layer_2">
	<path class="st1" d="M65.6,1.8L1.8,65.6c-0.4,0.4-1.1,0.4-1.5,0h0c-0.4-0.4-0.4-1.1,0-1.5L64,0.3c0.4-0.4,1.1-0.4,1.5,0v0
		C66,0.7,66,1.4,65.6,1.8z"/>
	<path class="st1" d="M1.8,0.4l63.7,63.7c0.4,0.4,0.4,1.1,0,1.5l0,0c-0.4,0.4-1.1,0.4-1.5,0L0.3,1.9c-0.4-0.4-0.4-1.1,0-1.5l0,0
		C0.7-0.1,1.4-0.1,1.8,0.4z"/>
</g>
</svg>
