<?xml version="1.0" encoding="utf-8"?>
<!-- Generator: Adobe Illustrator 19.0.1, SVG Export Plug-In . SVG Version: 6.00 Build 0)  -->
<svg version="1.1" xmlns="http://www.w3.org/2000/svg" xmlns:xlink="http://www.w3.org/1999/xlink" x="0px" y="0px"
	 viewBox="0 0 199.3 149.5" style="enable-background:new 0 0 199.3 149.5;" xml:space="preserve">
<style type="text/css">
	.st0{display:none;}
	.st1{fill:#FFFFFF;}
</style>
<g id="Layer_1" class="st0">
	
		<image style="display:inline;overflow:visible;" width="28" height="21" xlink:href="меню.png"  transform="matrix(7.1173 0 0 7.1173 0 0)">
	</image>
</g>
<g id="Layer_2">
	<path class="st1" d="M194.6,22H4.7C2.1,22,0,19.9,0,17.4V4.7C0,2.1,2.1,0,4.7,0h190c2.6,0,4.7,2.1,4.7,4.7v12.7
		C199.3,19.9,197.2,22,194.6,22z"/>
	<path class="st1" d="M194.6,85.7H4.7c-2.6,0-4.7-2.1-4.7-4.7V68.4c0-2.6,2.1-4.7,4.7-4.7h190c2.6,0,4.7,2.1,4.7,4.7v12.7
		C199.3,83.7,197.2,85.7,194.6,85.7z"/>
	<path class="st1" d="M194.6,149.5H4.7c-2.6,0-4.7-2.1-4.7-4.7v-12.7c0-2.6,2.1-4.7,4.7-4.7h190c2.6,0,4.7,2.1,4.7,4.7v12.7
		C199.3,147.4,197.2,149.5,194.6,149.5z"/>
</g>
</svg>
